<?xml version="1.0" encoding="utf-8"?>
<!-- Generator: Adobe Illustrator 16.0.3, SVG Export Plug-In . SVG Version: 6.00 Build 0)  -->
<!DOCTYPE svg PUBLIC "-//W3C//DTD SVG 1.1//EN" "http://www.w3.org/Graphics/SVG/1.1/DTD/svg11.dtd">
<svg version="1.1" id="Capa_1" xmlns="http://www.w3.org/2000/svg" xmlns:xlink="http://www.w3.org/1999/xlink" x="0px" y="0px"
	 width="500px" height="500px" viewBox="0 0 500 500" enable-background="new 0 0 500 500" xml:space="preserve">
<g>
	<defs>
		<rect id="SVGID_1_" x="1" width="500" height="500"/>
	</defs>
	<clipPath id="SVGID_2_">
		<use xlink:href="#SVGID_1_"  overflow="visible"/>
	</clipPath>
	<path clip-path="url(#SVGID_2_)" fill="#5757F2" d="M501,250c0,138.071-111.929,250-250,250C112.929,500,1,388.071,1,250
		C1,111.929,112.929,0,251,0C389.071,0,501,111.929,501,250"/>
	<path display="none" clip-path="url(#SVGID_2_)" fill="#FFFFFF" d="M465.174,311.813c-40.038-12.013-83.015-25.87-119.057-52.845
		c-15.235-11.402-28.853-24.419-47.14-24.722c-21.295-0.351-41.688,12.308-61.82,18.743c-20.408,6.522-41.739,7.171-62.125,13.479
		c-8.969,2.774-18.267,7.158-24.334,16.137c-9.892-6.334-23.74-7.079-34.443-9.644c-20.156-4.829-40.537-15.51-61.1-13.673
		c-18.102,1.616-40.301,16.857-31.896,44.47c5.96,19.581,26.303,24.288,40.153,29.698c22.795,8.904,45.301,22.34,67.004,35.028
		c10.075,5.89,20.061,12.034,29.975,18.366c9.166,5.854,18.408,15.117,28.859,16.239c20.299,2.173,43.202-8.437,63.354-11.235
		c37.396-5.198,82.119-10.961,116.647,15.109c9.223,6.963,16.284,12.799,26.524,8.071c8.402-3.881,16.703-8.106,24.718-13.052
		c16.533-10.201,32.146-23.814,42.38-43.317C468.045,348.811,482.536,317.021,465.174,311.813"/>
	<path clip-path="url(#SVGID_2_)" fill="#5EEB00" d="M321.231,133.302v18.412c0,5.56-4.081,10.273-9.018,10.273h-41.187v40.877
		c0,4.926-4.502,8.987-10.295,8.987h-18.446c-5.793,0-10.305-4.062-10.305-8.987v-40.877h-41.185c-4.929,0-9.01-4.713-9.01-10.273
		v-18.412c0-5.773,4.081-10.485,9.01-10.485h41.185V81.938c0-4.925,4.512-8.99,10.305-8.99h18.446c5.793,0,10.295,4.065,10.295,8.99
		v40.879h41.187C317.15,122.817,321.231,127.529,321.231,133.302"/>
</g>
<g>
	<path fill="#FFFFFF" d="M35.171,257.055c3.894,4.398,8.532,8.204,12.776,12.209c5.115,4.836,10.368,9.511,15.675,14.115
		c9.86,8.557,19.919,16.852,29.822,25.354c1.95-5.16,6.149-9.568,10.521-12.586c6.642-4.583,14.66-6.939,22.729-8.163
		c-4.972-6.718-13.332-9.494-20.539-12.811c-8.398-3.857-15.11-9.934-22.304-15.735c-7.085-5.72-14.785-10.891-23.965-11.587
		C51.308,247.204,40.762,249.766,35.171,257.055"/>
	<path fill="#FFFFFF" d="M45.837,238.95c0.678,2.191,2.211,4.197,3.467,6.055c2.411-0.502,4.859-0.798,7.272-0.938
		c10.142-0.605,19.209,4.441,27.11,10.526c7.928,6.1,15.016,13.06,24.133,17.253c8.465,3.89,17.541,7.146,22.885,15.538
		c0.019,0.023,0.028,0.048,0.042,0.071c2.65-0.286,5.281-0.469,7.846-0.591c0.875-0.041,1.749-0.07,2.625-0.096
		c-5.987-6.767-13.495-11.813-20.995-16.652c-8.276-5.352-16.186-10.885-23.784-17.24c-7.61-6.369-15.389-13.053-24.662-16.618
		C63.573,233.105,52.475,232.066,45.837,238.95"/>
	<path fill="#FFFFFF" d="M76.167,233.991c7.104,3.283,13.483,8.457,19.46,13.41c3.958,3.278,7.851,6.632,11.946,9.729
		c4.295,3.249,8.855,6.117,13.373,9.022c9.051,5.814,18.253,11.879,25.009,20.574c6.648,0.048,13.292,0.513,19.928,1.027
		c-5.895-6.132-12.812-11.101-19.56-16.174c-7.747-5.82-14.64-12.327-21.608-19.104c-6.787-6.597-13.998-12.975-22.759-16.507
		C93.949,232.74,84.651,232.059,76.167,233.991"/>
	<path fill="#FFFFFF" d="M187.386,329.634c0.434-0.068,0.842-0.084,1.062-0.188c2.371-0.225,4.751-0.415,7.133-0.559l5.958-0.299
		c0.094-0.06,0.861,0.077,0.937,0.006c3.22-0.076,6.44-0.057,9.656,0.075l3.41,0.193c2.971,0.206,5.936,0.512,8.883,0.945
		c13.363,1.967,26.067,6.217,38.162,12.411c2.085,1.072,3.923-2.174,1.824-3.248c-13.442-6.889-27.651-11.549-42.581-13.267
		c-11.377-1.31-22.839-1.063-34.218,0.046c-0.212,0.01-0.424,0.028-0.642,0.063c-1.68,0.169-3.351,0.358-5.027,0.559
		c-11.168,1.359-22.235,3.545-33.445,4.575c-11.288,1.041-23.199,1.31-34.05-2.602c-8.453-3.045-20.866-7.245-18.132-18.488
		c2.64-10.871,14.194-13.133,23.633-15.913c12.595-3.709,25.786-3.916,38.786-3.555c12.908,0.368,25.845-2.088,38.756-2.43
		c12.161-0.328,24.529-5.317,35.211-11.721c0.128-0.055,0.267-0.125,0.396-0.22c0.059-0.042,0.117-0.085,0.177-0.127
		c0.017-0.009,0.036-0.019,0.049-0.03c0.045-0.024,0.077-0.058,0.121-0.086c17.585-12.599,36.551-28.921,58.907-29.646
		c11.774-0.381,23.152,2.931,34.588,5.354c5.609,1.191,11.404,2.393,17.144,2.515c5.709,0.122,11.414,0.022,17.123-0.01
		c13.309-0.081,26.525,0.664,39.083,5.688c11.979,4.797,23.444,11.009,33.955,18.681c10.535,7.69,19.521,16.952,28.803,26.152
		c0.593,0.589,1.187,1.178,1.782,1.761l-48.647,75.545c-2.899-2.201-5.914-4.231-9.065-6.022
		c-11.396-6.48-23.676-9.508-36.662-9.314c-13.178,0.192-26.395,2.636-39.21,5.677c-14.339,3.406-28.503,7.516-42.72,11.41
		c-14.139,3.87-28.374,7.612-42.796,10.134c-13.968,2.438-28.907,3.878-42.869,0.612c-0.135-0.033-0.268-0.047-0.398-0.052
		c-13.236-8.236-24.23-19.568-35.124-30.799c-5.431-5.6-10.859-11.219-16.606-16.473c-4.418-4.035-8.989-8.27-14.036-11.558
		c13.925-0.023,27.986-2.955,41.781-4.843L187.386,329.634z"/>
</g>
<rect x="-123.715" y="-435.115" fill="none" width="759.048" height="882.449"/>
</svg>
