<?xml version="1.0" encoding="utf-8"?>
<!-- Generator: Adobe Illustrator 16.0.3, SVG Export Plug-In . SVG Version: 6.00 Build 0)  -->
<!DOCTYPE svg PUBLIC "-//W3C//DTD SVG 1.1//EN" "http://www.w3.org/Graphics/SVG/1.1/DTD/svg11.dtd">
<svg version="1.1" xmlns="http://www.w3.org/2000/svg" xmlns:xlink="http://www.w3.org/1999/xlink" x="0px" y="0px" width="500px"
	 height="500px" viewBox="0 0 500 500" enable-background="new 0 0 500 500" xml:space="preserve">
<g id="Capa_1">
	<g>
		<defs>
			<rect id="SVGID_1_" width="500" height="500"/>
		</defs>
		<clipPath id="SVGID_2_">
			<use xlink:href="#SVGID_1_"  overflow="visible"/>
		</clipPath>
		<path clip-path="url(#SVGID_2_)" fill="#5757F2" d="M500,250c0,138.071-111.929,250-250,250C111.929,500,0,388.071,0,250
			C0,111.929,111.929,0,250,0C388.071,0,500,111.929,500,250"/>
		<path clip-path="url(#SVGID_2_)" fill="#FFFFFF" d="M464.174,311.813c-40.038-12.013-83.015-25.87-119.057-52.845
			c-15.235-11.402-28.853-24.419-47.14-24.722c-21.295-0.351-41.688,12.308-61.821,18.743c-20.408,6.522-41.739,7.171-62.125,13.479
			c-8.968,2.774-18.266,7.158-24.333,16.137c-9.892-6.334-23.741-7.079-34.444-9.644c-20.156-4.829-40.537-15.51-61.1-13.673
			c-18.102,1.616-40.301,16.857-31.896,44.47c5.96,19.581,26.303,24.288,40.153,29.698c22.795,8.904,45.301,22.34,67.004,35.028
			c10.075,5.89,20.061,12.034,29.975,18.366c9.166,5.854,18.408,15.117,28.859,16.239c20.299,2.173,43.202-8.437,63.354-11.235
			c37.396-5.198,82.119-10.961,116.647,15.109c9.223,6.963,16.284,12.799,26.524,8.071c8.402-3.881,16.703-8.106,24.718-13.052
			c16.533-10.201,32.146-23.814,42.38-43.317C467.045,348.811,481.536,317.021,464.174,311.813"/>
		<path clip-path="url(#SVGID_2_)" fill="#5EEB00" d="M320.231,133.302v18.412c0,5.56-4.081,10.273-9.018,10.273h-41.187v40.877
			c0,4.926-4.502,8.987-10.295,8.987h-18.446c-5.793,0-10.304-4.062-10.304-8.987v-40.877h-41.185c-4.929,0-9.01-4.713-9.01-10.273
			v-18.412c0-5.773,4.081-10.485,9.01-10.485h41.185V81.938c0-4.925,4.511-8.99,10.304-8.99h18.446
			c5.793,0,10.295,4.065,10.295,8.99v40.879h41.187C316.15,122.817,320.231,127.529,320.231,133.302"/>
	</g>
</g>
<g id="Capa_2">
</g>
</svg>
